<?xml version="1.0" standalone="no"?><!DOCTYPE svg PUBLIC "-//W3C//DTD SVG 1.1//EN" "http://www.w3.org/Graphics/SVG/1.1/DTD/svg11.dtd"><svg t="1510729560056" class="icon" style="" viewBox="0 0 1024 1024" version="1.1" xmlns="http://www.w3.org/2000/svg" p-id="12503" xmlns:xlink="http://www.w3.org/1999/xlink" width="16" height="16"><defs><style type="text/css"></style></defs><path d="M513.087263 313.569672c-110.171192 0-199.471031 89.298815-199.471031 199.471031 0 110.171192 89.299839 199.468984 199.471031 199.468984 110.170169 0 199.470007-89.297792 199.470007-199.468984C712.55727 402.867464 623.257431 313.569672 513.087263 313.569672zM513.032004 654.960992c-78.614475 0-142.28254-63.7223-142.28254-142.281517 0-78.585823 63.667042-142.281517 142.28254-142.281517 78.558194 0 142.279471 63.695694 142.279471 142.281517C655.311475 591.237669 591.590198 654.960992 513.032004 654.960992zM994.019687 412.916331l-0.906649-13.897521-98.255815 0c-7.961322-27.028587-18.701944-52.865022-31.906687-77.172637l70.084195-70.063729-10.131755-10.130731 9.683547-30.507828L814.333258 92.888574l-31.576159 8.615215-11.090593-8.563026-68.669986 68.690452c-24.472368-13.340843-50.506301-24.178679-77.745688-32.203446L625.250832 31.55774l-14.33959-1.055029L596.337315 2.074242 428.216293 2.074242l-15.501042 28.428469-13.895475 0 0 99.177813c-26.855648 7.972579-52.53654 18.703991-76.714196 31.861662l-70.052472-70.02996-9.853415 9.827833-31.15865-9.035794L92.484879 210.862475l8.954953 31.235398-10.102079 10.130731 70.250994 70.272483c-13.028735 24.116257-23.64349 49.736774-31.531134 76.517721L30.494013 399.018809l0 13.897521L2.093173 427.491281 2.093173 597.232197l28.40084 14.767332 0 14.310937 100.030228 0c7.973602 26.625404 18.659989 52.077076 31.724539 76.041884l-71.077825 71.056336 9.853415 9.825786-9.619078 30.600949 3.481288 3.480264L211.13928 933.544849l30.03506-10.159384 10.105149 10.131755 71.198575-71.178109c24.064069 13.068643 49.620118 23.743774 76.342736 31.68463l0 100.611465 13.895475 0 15.747659 28.274974 166.633135 0.153496 15.815197-28.428469 14.33959-1.826602 0-98.558713c26.78811-7.892761 52.404534-18.517749 76.526931-31.55467l70.847581 70.847581 10.130731-10.131755 30.602995 9.589402L932.991752 813.344233l-9.476839-30.719652 9.826809-9.82374-70.608128-70.611198c13.018501-23.920806 23.675212-49.314149 31.621185-75.880201l99.66593 0 0-14.310937 28.398794-15.544021L1022.419504 427.960978 994.019687 412.916331zM965.701734 569.565067l-97.242741 0 0 7.732102c-11.82328 2.518357-22.843264 9.343809-25.690102 20.310581-8.414647 32.496112-21.534456 63.137992-38.531572 91.096764-5.586229 9.191336-2.252297 21.267373 4.712325 30.909987l-4.51892 4.52199 68.788689 68.759013-80.496335 80.497359-68.760037-68.787666-4.945639 4.945639c-9.822716-7.063883-22.48613-10.332323-32.701796-4.281513-27.680433 16.414855-57.879222 28.979008-89.87903 37.063127-11.086499 2.790556-17.662265 14.453177-19.642362 26.742061l-8.28878 0 0 97.241718L455.564152 966.31623l0-97.241718-9.69685 0c-1.521656-12.458753-8.010441-24.483624-19.61678-27.51568-31.501458-8.277524-61.258179-20.925588-88.496543-37.258579-9.809413-5.894244-22.460548-1.810229-32.019251 6.097882l-5.792936-5.792936-68.759013 68.787666-79.860862-79.888492 68.787666-68.75799-3.325745-3.323699c7.650237-9.428743 11.512195-21.635763 5.595438-31.249725-17.605983-28.652574-31.113625-60.095703-39.694047-93.508697-2.843768-11.132548-14.404058-17.393135-26.601868-18.954701l0-8.143471L58.839595 569.56609 58.839595 455.768301l94.8963 0 0.342808-8.28571c12.923334-1.647523 25.535583-8.31334 28.496008-19.948331 8.221242-32.304753 21.064758-62.756299 37.755905-90.629113 5.79703-9.671267 2.229784-21.679765-5.132904-30.989805l5.022387-5.025457-68.759013-68.756967 80.496335-80.497359 68.760037 68.787666 2.752694-2.752694c8.127098 7.68196 18.567891 11.607362 26.865881 6.325056 29.230742-18.547425 61.450561-32.803103 95.831602-41.800012 11.148921-2.932796 17.812691-14.163581 19.981077-26.131147l9.41544 0L455.564152 58.81964l112.939235 0 0 97.243765 9.930163 0c2.670829 11.964496 9.662057 23.13286 20.713764 26.02063 32.608675 8.498558 63.305815 21.702278 91.320868 38.864146 8.889461 5.437849 20.216437 2.098801 29.205159-4.927219l4.563946 4.567016 68.788689-68.759013 79.858816 79.860862-68.759013 68.760037 4.133134 4.133134c-7.297197 8.478092-10.836813 19.382443-5.29561 28.366048 17.882276 28.897144 31.529087 60.673871 40.137139 94.446046 2.75167 10.788717 13.645788 17.216103 25.357528 19.303648l0 9.070586 97.242741 0L965.700711 569.565067z" p-id="12504" fill="#666666"></path><path d="M31.72812 428.600545m-29.67588 0a29 29 0 1 0 59.35176 0 29 29 0 1 0-59.35176 0Z" p-id="12505" fill="#666666"></path><path d="M31.72812 596.636632m-29.67588 0a29 29 0 1 0 59.35176 0 29 29 0 1 0-59.35176 0Z" p-id="12506" fill="#666666"></path><path d="M152.979672 599.242993m-29.67588 0a29 29 0 1 0 59.35176 0 29 29 0 1 0-59.35176 0Z" p-id="12507" fill="#666666"></path><path d="M152.979672 426.090375m-29.67588 0a29 29 0 1 0 59.35176 0 29 29 0 1 0-59.35176 0Z" p-id="12508" fill="#666666"></path><path d="M113.139292 232.205573m-29.67588 0a29 29 0 1 0 59.35176 0 29 29 0 1 0-59.35176 0Z" p-id="12509" fill="#666666"></path><path d="M231.928768 113.331161m-29.67588 0a29 29 0 1 0 59.35176 0 29 29 0 1 0-59.35176 0Z" p-id="12510" fill="#666666"></path><path d="M428.402535 31.743982m-29.67588 0a29 29 0 1 0 59.35176 0 29 29 0 1 0-59.35176 0Z" p-id="12511" fill="#666666"></path><path d="M595.563696 31.743982m-29.67588 0a29 29 0 1 0 59.35176 0 29 29 0 1 0-59.35176 0Z" p-id="12512" fill="#666666"></path><path d="M793.024953 113.565499m-29.67588 0a29 29 0 1 0 59.35176 0 29 29 0 1 0-59.35176 0Z" p-id="12513" fill="#666666"></path><path d="M940.872233 231.778854c0 16.389272-13.284561 29.67588-29.67588 29.67588-16.389272 0-29.67588-13.286608-29.67588-29.67588s13.286608-29.67588 29.67588-29.67588c8.138354 0 15.512299 3.276626 20.8734 8.582469C937.505555 216.063941 940.872233 223.527936 940.872233 231.778854z" p-id="12514" fill="#666666"></path><path d="M1022.416434 428.701852c0 16.389272-13.284561 29.67588-29.67588 29.67588-16.389272 0-29.67588-13.286608-29.67588-29.67588s13.286608-29.67588 29.67588-29.67588c8.138354 0 15.512299 3.276626 20.8734 8.582469C1019.049756 412.986939 1022.416434 420.450934 1022.416434 428.701852z" p-id="12515" fill="#666666"></path><path d="M1022.416434 596.640726c0 16.390295-13.284561 29.67588-29.67588 29.67588-16.389272 0-29.67588-13.285584-29.67588-29.67588 0-16.389272 13.286608-29.67588 29.67588-29.67588 8.138354 0 15.512299 3.276626 20.8734 8.582469C1019.049756 580.925812 1022.416434 588.389808 1022.416434 596.640726z" p-id="12516" fill="#666666"></path><path d="M941.234483 792.944624c0 16.390295-13.284561 29.67588-29.67588 29.67588-16.389272 0-29.67588-13.285584-29.67588-29.67588 0-16.389272 13.286608-29.67588 29.67588-29.67588 8.138354 0 15.512299 3.276626 20.8734 8.582469C937.867806 777.22971 941.234483 784.693706 941.234483 792.944624z" p-id="12517" fill="#666666"></path><path d="M822.404074 911.690098c0 16.390295-13.284561 29.67588-29.67588 29.67588-16.389272 0-29.67588-13.285584-29.67588-29.67588 0-16.389272 13.286608-29.67588 29.67588-29.67588 8.138354 0 15.512299 3.276626 20.8734 8.582469C819.037397 895.975185 822.404074 903.43918 822.404074 911.690098z" p-id="12518" fill="#666666"></path><path d="M625.256972 993.298767c0 16.390295-13.284561 29.67588-29.67588 29.67588-16.389272 0-29.67588-13.285584-29.67588-29.67588 0-16.389272 13.286608-29.67588 29.67588-29.67588 8.138354 0 15.512299 3.276626 20.8734 8.582469C621.890294 977.583854 625.256972 985.04785 625.256972 993.298767z" p-id="12519" fill="#666666"></path><path d="M458.13879 993.235322c0 16.390295-13.284561 29.67588-29.67588 29.67588-16.389272 0-29.67588-13.285584-29.67588-29.67588 0-16.389272 13.286608-29.67588 29.67588-29.67588 8.138354 0 15.512299 3.276626 20.8734 8.582469C454.772113 977.521432 458.13879 984.985428 458.13879 993.235322z" p-id="12520" fill="#666666"></path><path d="M260.874007 911.648143c0 16.390295-13.284561 29.67588-29.67588 29.67588-16.389272 0-29.67588-13.285584-29.67588-29.67588 0-16.389272 13.286608-29.67588 29.67588-29.67588 8.138354 0 15.512299 3.276626 20.8734 8.582469C257.50733 895.933229 260.874007 903.397225 260.874007 911.648143z" p-id="12521" fill="#666666"></path><path d="M142.692375 793.46651c0 16.390295-13.284561 29.67588-29.67588 29.67588-16.389272 0-29.67588-13.285584-29.67588-29.67588 0-16.389272 13.286608-29.67588 29.67588-29.67588 8.138354 0 15.512299 3.276626 20.8734 8.582469C139.325697 777.751596 142.692375 785.215592 142.692375 793.46651z" p-id="12522" fill="#666666"></path><path d="M197.194686 706.008622m-29.67588 0a29 29 0 1 0 59.35176 0 29 29 0 1 0-59.35176 0Z" p-id="12523" fill="#666666"></path><path d="M318.798255 827.612191m-29.67588 0a29 29 0 1 0 59.35176 0 29 29 0 1 0-59.35176 0Z" p-id="12524" fill="#666666"></path><path d="M426.074513 872.127034m-29.67588 0a29 29 0 1 0 59.35176 0 29 29 0 1 0-59.35176 0Z" p-id="12525" fill="#666666"></path><path d="M196.683033 319.027987m-29.67588 0a29 29 0 1 0 59.35176 0 29 29 0 1 0-59.35176 0Z" p-id="12526" fill="#666666"></path><path d="M319.308885 197.169615m-29.67588 0a29 29 0 1 0 59.35176 0 29 29 0 1 0-59.35176 0Z" p-id="12527" fill="#666666"></path><path d="M425.989579 152.058185m-29.67588 0a29 29 0 1 0 59.35176 0 29 29 0 1 0-59.35176 0Z" p-id="12528" fill="#666666"></path><path d="M598.032934 152.186098m-29.67588 0a29 29 0 1 0 59.35176 0 29 29 0 1 0-59.35176 0Z" p-id="12529" fill="#666666"></path><path d="M707.059046 196.273199m-29.67588 0a29 29 0 1 0 59.35176 0 29 29 0 1 0-59.35176 0Z" p-id="12530" fill="#666666"></path><path d="M828.350506 317.763181m-29.67588 0a29 29 0 1 0 59.35176 0 29 29 0 1 0-59.35176 0Z" p-id="12531" fill="#666666"></path><path d="M873.034195 426.149726m-29.67588 0a29 29 0 1 0 59.35176 0 29 29 0 1 0-59.35176 0Z" p-id="12532" fill="#666666"></path><path d="M872.94926 599.173408m-29.67588 0a29 29 0 1 0 59.35176 0 29 29 0 1 0-59.35176 0Z" p-id="12533" fill="#666666"></path><path d="M828.350506 706.022948m-29.67588 0a29 29 0 1 0 59.35176 0 29 29 0 1 0-59.35176 0Z" p-id="12534" fill="#666666"></path><path d="M705.895547 828.392974m-29.67588 0a29 29 0 1 0 59.35176 0 29 29 0 1 0-59.35176 0Z" p-id="12535" fill="#666666"></path><path d="M598.128101 872.39514m-29.67588 0a29 29 0 1 0 59.35176 0 29 29 0 1 0-59.35176 0Z" p-id="12536" fill="#666666"></path></svg>