<?xml version="1.0" standalone="no"?><!DOCTYPE svg PUBLIC "-//W3C//DTD SVG 1.1//EN" "http://www.w3.org/Graphics/SVG/1.1/DTD/svg11.dtd"><svg t="1512117146063" class="icon" style="" viewBox="0 0 1024 1024" version="1.1" xmlns="http://www.w3.org/2000/svg" p-id="3730" xmlns:xlink="http://www.w3.org/1999/xlink" width="32" height="32"><defs><style type="text/css"></style></defs><path d="M804.16 884.5866666666666c0 16.96-13.013333333333332 30.826666666666664-29.013333333333332 30.826666666666664h-516.2666666666667c-16 0-29.013333333333332-13.866666666666667-29.013333333333332-30.826666666666664V226.13333333333333H804.2666666666667v658.4533333333333z m-470.4-773.2266666666667h366.61333333333334l28.69333333333333 57.38666666666666H304.96l28.8-57.38666666666666z m614.08 57.38666666666666h-154.66666666666666l-49.49333333333333-98.98666666666666-0.21333333333333335 0.21333333333333335c-4.8-9.386666666666667-14.293333333333333-16-25.493333333333332-16H315.94666666666666c-11.2 0-20.69333333333333 6.613333333333333-25.493333333333332 16l-0.21333333333333335-0.21333333333333335-49.49333333333333 98.98666666666666H86.18666666666667c-15.893333333333333 0-28.69333333333333 12.906666666666666-28.69333333333333 28.69333333333333S70.40000000000003 226.13333333333333 86.18666666666667 226.13333333333333h86.18666666666667v658.4533333333333c0 48.74666666666667 38.72 88.32 86.50666666666666 88.32h516.2666666666667c47.68 0 86.50666666666666-39.57333333333334 86.50666666666666-88.32V226.13333333333333h86.18666666666667c15.893333333333333 0 28.69333333333333-12.906666666666666 28.69333333333333-28.69333333333333s-12.906666666666666-28.69333333333333-28.69333333333333-28.69333333333333z" p-id="3731" fill="#666666"></path><path d="M517.0133333333334 341.12c-15.893333333333333 0-28.69333333333333 12.906666666666666-28.69333333333333 28.69333333333333v402.02666666666664c0 15.893333333333333 12.906666666666666 28.69333333333333 28.69333333333333 28.69333333333333 15.893333333333333 0 28.69333333333333-12.906666666666666 28.69333333333333-28.69333333333333V369.81333333333333c0-15.893333333333333-12.906666666666666-28.69333333333333-28.69333333333333-28.69333333333333M373.44000000000005 341.12c-15.893333333333333 0-28.69333333333333 12.906666666666666-28.69333333333333 28.69333333333333v402.02666666666664c0 15.893333333333333 12.906666666666666 28.69333333333333 28.69333333333333 28.69333333333333s28.69333333333333-12.906666666666666 28.69333333333333-28.69333333333333V369.81333333333333c0-15.893333333333333-12.906666666666666-28.69333333333333-28.69333333333333-28.69333333333333M660.5866666666666 341.12c-15.893333333333333 0-28.69333333333333 12.906666666666666-28.69333333333333 28.69333333333333v402.02666666666664c0 15.893333333333333 12.906666666666666 28.69333333333333 28.69333333333333 28.69333333333333s28.69333333333333-12.906666666666666 28.69333333333333-28.69333333333333V369.81333333333333c0-15.893333333333333-12.8-28.69333333333333-28.69333333333333-28.69333333333333" p-id="3732" fill="#666666"></path></svg>