<?xml version="1.0" standalone="no"?><!DOCTYPE svg PUBLIC "-//W3C//DTD SVG 1.1//EN" "http://www.w3.org/Graphics/SVG/1.1/DTD/svg11.dtd"><svg t="1512116978458" class="icon" style="" viewBox="0 0 1024 1024" version="1.1" xmlns="http://www.w3.org/2000/svg" p-id="1873" xmlns:xlink="http://www.w3.org/1999/xlink" width="32" height="32"><defs><style type="text/css"></style></defs><path d="M750.592 972.8l-552.96 0C116.736 972.8 51.2 907.264 51.2 826.368l0-552.96c0-80.896 65.536-146.432 146.432-146.432l276.48 0c23.552 0 38.912 15.36 38.912 37.888 0 23.552-15.36 38.912-38.912 38.912l-276.48 0c-37.888 0-69.632 30.72-69.632 68.608l0 548.864c0 38.912 30.72 69.632 69.632 69.632l548.864 0c37.888 0 69.632-30.72 69.632-69.632L816.128 550.912c0-23.552 15.36-37.888 37.888-37.888 22.528 0 37.888 15.36 37.888 37.888l0 276.48C896 907.264 830.464 972.8 750.592 972.8L750.592 972.8zM750.592 972.8" p-id="1874" fill="#666666"></path><path d="M281.6 781.312c-11.264 0-19.456-4.096-26.624-11.264-8.192-8.192-11.264-23.552-11.264-34.816L281.6 542.72c0-8.192 4.096-15.36 11.264-19.456l460.8-460.8c15.36-15.36 37.888-15.36 53.248 0l153.6 153.6c15.36 15.36 15.36 37.888 0 53.248l-460.8 460.8c-4.096 4.096-11.264 8.192-19.456 11.264l-192.512 38.912L281.6 780.288 281.6 781.312zM354.304 569.344l-23.552 122.88 122.88-23.552L880.64 243.712 781.312 143.36 354.304 569.344 354.304 569.344zM354.304 569.344" p-id="1875" fill="#666666"></path></svg>