<?xml version="1.0" standalone="no"?><!DOCTYPE svg PUBLIC "-//W3C//DTD SVG 1.1//EN" "http://www.w3.org/Graphics/SVG/1.1/DTD/svg11.dtd"><svg t="1512463190510" class="icon" style="" viewBox="0 0 1024 1024" version="1.1" xmlns="http://www.w3.org/2000/svg" p-id="8299" xmlns:xlink="http://www.w3.org/1999/xlink" width="32" height="32"><defs><style type="text/css"></style></defs><path d="M317.312 485.696 211.264 820.48l141.76-147.52c-9.728-25.472-7.296-68.992 12.608-89.664 26.688-27.712 70.592-27.072 97.344 0.64 26.688 27.712 28.16 74.048 1.408 101.76-20.288 21.056-64.96 22.336-89.792 11.328l-140.48 146.112 315.264-114.88 114.816-214.464L524.224 370.688 317.312 485.696z" p-id="8300" fill="#ffffff"></path><path d="M932.096 95.296 840.192 0c0 0-78.464 81.344-143.552 148.864-3.648-0.256-6.976-1.088-10.624-1.088L158.912 147.776C70.592 147.776 0 221.568 0 312.576l0 546.624C0 950.72 71.168 1024 158.912 1024l527.104 0c88.384 0 158.912-73.728 158.912-164.8L844.928 376.32C912.64 306.112 1024 190.592 1024 190.592L932.096 95.296zM792.128 859.2c0 61.056-47.104 110.08-106.112 110.08L158.912 969.28c-58.816 0-106.112-48.96-106.112-110.08L52.8 312.576c0-60.992 47.168-110.016 106.112-110.08l485.952 0C630.912 216.96 620.032 228.16 614.656 233.792 584.512 265.088 568.768 382.72 568.768 382.72l87.552 90.88c0 0 98.496-14.912 135.808-44.288L792.128 859.2z" p-id="8301" fill="#ffffff"></path></svg>