<?xml version="1.0" standalone="no"?><!DOCTYPE svg PUBLIC "-//W3C//DTD SVG 1.1//EN" "http://www.w3.org/Graphics/SVG/1.1/DTD/svg11.dtd"><svg t="1510900111081" class="icon" style="" viewBox="0 0 1024 1024" version="1.1" xmlns="http://www.w3.org/2000/svg" p-id="2182" xmlns:xlink="http://www.w3.org/1999/xlink" width="16" height="16"><defs><style type="text/css"></style></defs><path d="M512 0C229.234759 0 0 229.234759 0 512s229.234759 512 512 512 512-229.234759 512-512S794.765241 0 512 0zM512 229.146483c29.254621 0 52.947862 23.710897 52.947862 52.947862S541.254621 335.059862 512 335.059862c-29.236966 0-52.947862-23.710897-52.947862-52.947862S482.763034 229.146483 512 229.146483zM547.310345 794.394483C547.310345 813.938759 531.632552 829.793103 512 829.793103c-19.508966 0-35.310345-15.83669-35.310345-35.398621l0-352.926897C476.689655 421.92331 492.367448 406.068966 512 406.068966c19.508966 0 35.310345 15.83669 35.310345 35.398621L547.310345 794.394483z" fill="#995500" p-id="2183"></path></svg>