<?xml version="1.0" standalone="no"?><!DOCTYPE svg PUBLIC "-//W3C//DTD SVG 1.1//EN" "http://www.w3.org/Graphics/SVG/1.1/DTD/svg11.dtd"><svg t="1511853788839" class="icon" style="" viewBox="0 0 1024 1024" version="1.1" xmlns="http://www.w3.org/2000/svg" p-id="1873" xmlns:xlink="http://www.w3.org/1999/xlink" width="32" height="32"><defs><style type="text/css"></style></defs><path d="M750.118117 898.033776 273.165584 898.033776c-62.931948-0.204657-113.686819-51.368842-113.584491-114.198461l0-0.102328L159.581093 535.484361c-0.204657-62.420306 49.936245-113.379834 112.35655-114.198461 0-0.306985-0.102328-0.61397-0.102328-0.920955 3.479165-165.464975 102.840012-295.217348 226.248026-295.217348s222.87119 129.650045 226.350355 295.217348c0 0.306985 0 0.511642 0 0.818627l25.684421 0c62.931948 0.306985 113.789148 51.47117 113.584491 114.300789l0 248.248626c0.306985 62.931948-50.550215 114.198461-113.482162 114.300789C750.220446 898.033776 750.220446 898.033776 750.118117 898.033776zM498.18567 170.17208c-97.621265 0-176.925752 111.640252-179.893275 250.909164l359.684221 0C675.21375 281.812331 595.909264 170.17208 498.18567 170.17208zM818.37114 535.484361c0.102328-37.759169-30.391526-68.45768-68.150695-68.662336L273.165584 466.822025c-37.759169 0.204657-68.150695 30.903168-68.150695 68.662336l0 248.248626c-0.102328 37.759169 30.391526 68.45768 68.150695 68.662336L750.118117 852.395323c37.759169-0.204657 68.150695-30.903168 68.150695-68.662336L818.268812 535.484361zM522.846807 676.083542l0 86.365144-22.716898 0 0-86.365144c-34.996303-6.242031-58.224843-39.703408-51.880484-74.69971 6.242031-34.996303 39.703408-58.224843 74.69971-51.880484 34.996303 6.344359 58.224843 39.703408 51.880484 74.69971C570.020186 650.603777 549.349855 671.376436 522.846807 676.083542z" p-id="1874" fill="#666666"></path></svg>