<?xml version="1.0" standalone="no"?><!DOCTYPE svg PUBLIC "-//W3C//DTD SVG 1.1//EN" "http://www.w3.org/Graphics/SVG/1.1/DTD/svg11.dtd"><svg t="1512462970118" class="icon" style="" viewBox="0 0 1024 1024" version="1.1" xmlns="http://www.w3.org/2000/svg" p-id="6042" xmlns:xlink="http://www.w3.org/1999/xlink" width="32" height="32"><defs><style type="text/css"></style></defs><path d="M884.544 62.848H650.048v71.104H363.776V62.848H140.288c-60.288 0-140.288 80-140.288 140.288v617.728c0 60.352 80 140.224 140.288 140.224h744.32c60.352 0 140.352-79.872 140.352-140.224V203.136c0-60.288-80-140.288-140.416-140.288z m-225.856 794.432H366.336a33.152 33.152 0 1 1 0-66.304h292.352a33.152 33.152 0 0 1 0 66.304zM783.168 284.16l-0.512 0.256-0.512 0.384-0.768 0.704-2.688 1.984-0.64 3.328a271.232 271.232 0 0 1-90.24 156.352 269.568 269.568 0 0 1-350.784-0.064 270.656 270.656 0 0 1-90.112-156.352l-0.704-3.264-2.624-2.048-1.088-0.832-0.512-0.32a49.984 49.984 0 1 1 61.12-6.336l-3.584 3.392 1.216 4.864A220.928 220.928 0 0 0 512.448 451.328a220.8 220.8 0 0 0 211.712-165.12l1.28-4.864-3.648-3.456A49.984 49.984 0 0 1 756.48 192a49.92 49.92 0 0 1 26.688 92.16z" fill="#ffffff" p-id="6043"></path></svg>