<?xml version="1.0" standalone="no"?><!DOCTYPE svg PUBLIC "-//W3C//DTD SVG 1.1//EN" "http://www.w3.org/Graphics/SVG/1.1/DTD/svg11.dtd"><svg t="1511251183824" class="icon" style="" viewBox="0 0 1024 1024" version="1.1" xmlns="http://www.w3.org/2000/svg" p-id="1024" xmlns:xlink="http://www.w3.org/1999/xlink" width="200" height="200"><defs><style type="text/css"></style></defs><path d="M484.608 253.504c99.456 0 198.976-1.024 298.368 0.32 86.528 1.216 111.296 24.192 117.312 108.48 2.688 37.376 6.464 69.696 50.368 82.624 9.984 2.88 20.48 23.488 20.8 36.16 1.856 72.896 2.176 145.92-0.448 218.752-0.512 14.272-13.504 34.496-26.304 40.512-32.832 15.68-42.432 39.04-44.544 73.408-5.312 86.912-37.248 117.184-125.12 117.824-196.736 1.216-393.472 1.024-590.144 0-86.912-0.512-126.848-39.744-127.488-125.376-1.088-141.44-0.064-282.88 0.064-424.32 0-8.832-0.064-17.792 0.96-26.56 7.744-65.792 41.664-100.032 107.968-101.312 105.984-1.984 212.096-0.576 318.208-0.512z m-6.272 45.184v-0.448h-53.12c-81.792 0.32-163.648 0.448-245.376 0.768-33.664 0.192-61.696 10.496-72 46.08-4.224 14.592-5.824 30.464-5.824 45.696-0.448 132.608-1.024 265.28 0 398.016 0.576 75.584 22.848 98.24 100.48 98.688 185.728 1.28 371.52 0.64 557.248 0.32 17.408-0.128 35.712-1.6 52.096-7.104 34.56-11.52 51.392-49.024 44.48-92.992-4.992-32.064-15.168-39.36-63.616-40.576-44.16-1.216-88.512 0.384-132.608-1.344-30.72-1.152-62.016-2.752-91.776-9.472-43.328-9.792-69.056-39.424-70.72-84.736a1290.47 1290.47 0 0 1 1.344-125.888c2.496-42.432 29.056-68.736 67.776-80.768 18.496-5.76 39.424-5.12 59.2-5.312 59.712-0.704 119.296 0.832 179.072-0.96 39.744-1.216 49.92-13.632 51.904-52.928 2.944-61.184-17.216-85.312-80.192-86.528-99.392-1.856-198.912-0.512-298.368-0.512z m264.128 398.08c41.856 0 83.712 1.152 125.632-0.32 48.832-1.664 55.488-9.344 57.344-59.584 1.024-28.544 0.896-57.28 0.256-85.824-1.28-57.024-4.992-61.568-59.456-62.528-68.352-1.152-136.576-0.384-204.864-0.384-115.712 0.064-128 13.44-120.064 130.368 4.096 60.544 19.392 75.84 82.176 78.016 39.616 1.408 79.296 0.32 118.976 0.256zM364.096 178.432c93.248-43.584 186.432-87.424 279.936-130.56 21.312-9.856 40.064-2.56 50.432 17.664 15.936 31.296 30.208 63.488 43.52 95.936 2.688 6.592-0.32 22.4-3.008 22.976-9.664 2.048-24.32 3.136-29.632-2.432-11.776-12.224-19.008-28.864-28.096-43.584-22.976-36.736-27.52-38.848-68.224-21.76-50.816 21.312-99.968 46.4-151.424 65.536-27.456 10.112-58.176 11.2-87.488 16.448a1864.549 1864.549 0 0 0-6.016-20.224z" fill="#666666" p-id="1025"></path></svg>