<?xml version="1.0" standalone="no"?><!DOCTYPE svg PUBLIC "-//W3C//DTD SVG 1.1//EN" "http://www.w3.org/Graphics/SVG/1.1/DTD/svg11.dtd"><svg t="1510625971067" class="icon" style="" viewBox="0 0 1024 1024" version="1.1" xmlns="http://www.w3.org/2000/svg" p-id="2020" xmlns:xlink="http://www.w3.org/1999/xlink" width="32" height="32"><defs><style type="text/css"></style></defs><path d="M987.613 181.214l-0.558-1.755C956.48 87.755 913.916 68.4 881.585 68.4c-0.042 0-0.106 0-0.149 0-29.011 0.621-77.657 14.923-151.996 36.72C577.935 149.484 348.963 216.5 118.195 216.5c-62.521 0-109.688 78.985-109.688 183.75 0 104.743 47.167 183.707 109.688 183.707 15.33 0 30.64 0.3 45.905 0.856l80.248 319.238c10.534 41.966 52.714 74.854 95.987 74.854l64.812 0c25.18 0 46.654-10.707 58.924-29.376 12.246-18.67 13.681-42.587 3.896-65.646L348.45 603.398c146.108 23.167 281.042 62.647 382.465 92.324 73.376 21.496 121.874 35.672 152.469 36.355 30.383 0 73.013-19.292 103.673-111.124 19.785-59.479 30.704-137.844 30.704-220.705C1017.761 318.161 1007.055 240.481 987.613 181.214zM779.733 179.459c-19.807 59.522-30.726 137.887-30.726 220.726 0 82.841 10.919 161.205 30.745 220.749 1.906 5.718 3.897 11.222 5.953 16.51-11.519-3.299-23.638-6.873-36.441-10.62-104.271-30.532-246.569-72.199-401.715-95.793-13.146-32.847-20.898-81.127-20.898-130.845 0-50.85 7.538-98.083 20.812-130.842 156.3-23.746 298.472-65.476 402.679-96.05 12.247-3.597 24.151-7.066 35.563-10.364C783.651 168.218 781.66 173.743 779.733 179.459zM847.757 400.185c0 25.973-10.878 49.781-25.417 58.988-1.348-19.377-2.032-39.161-2.032-58.988 0-19.804 0.686-39.545 2.013-58.857C835.958 350.126 847.757 372.116 847.757 400.185zM890.235 491.375c18.586-24.751 28.799-57.125 28.799-91.19 0-34.021-10.213-66.396-28.799-91.188-15.673-20.897-36.355-34.985-59.138-40.552 4.282-24.452 9.763-46.762 16.315-66.46 16.7-50.231 32.78-60.593 35.97-62.178 3.19 1.584 19.271 11.905 36.014 62.134 17.472 52.437 27.063 122.813 27.063 198.203 0 75.368-9.593 145.745-27.063 198.203l-0.449 1.413c-18.05 53.399-35.179 60.68-35.028 61-0.92-0.32-18.327-7.771-36.526-62.371-6.572-19.719-12.055-42.028-16.336-66.459C853.88 526.383 874.562 512.273 890.235 491.375zM266.316 592.329l134.292 315.214-60.229 0c-10.684 0-24.215-10.555-26.827-20.919l-74.64-297.035C248.075 590.423 257.196 591.323 266.316 592.329zM269.464 520.966c-52.264-5.523-103.052-8.329-151.227-8.329-9.87 0-38.411-38.668-38.411-112.452 0-73.781 28.541-112.45 38.411-112.45 48.175 0 98.983-2.805 151.248-8.329-9.249 35.671-14.131 77.037-14.131 120.778C255.354 444.057 260.215 485.423 269.464 520.966z" p-id="2021" fill="#ffffff"></path></svg>