<?xml version="1.0" standalone="no"?><!DOCTYPE svg PUBLIC "-//W3C//DTD SVG 1.1//EN" "http://www.w3.org/Graphics/SVG/1.1/DTD/svg11.dtd"><svg t="1509518183350" class="icon" style="" viewBox="0 0 1280 1024" version="1.1" xmlns="http://www.w3.org/2000/svg" p-id="11113" xmlns:xlink="http://www.w3.org/1999/xlink" width="40" height="32"><defs><style type="text/css"></style></defs><path d="M1152 0 128 0C57.258667 0 0 57.344 0 128l0 768c0 70.656 57.301333 128 128 128l1024 0c70.656 0 128-57.344 128-128L1280 128C1280 57.344 1222.656 0 1152 0zM1194.666667 853.333333c0 47.104-38.229333 85.333333-85.333333 85.333333L170.666667 938.666667c-47.104 0-85.333333-38.229333-85.333333-85.333333L85.333333 332.8 640 554.666667l554.666667-221.866667L1194.666667 853.333333zM640 469.333333 85.333333 247.466667 85.333333 170.666667c0-47.104 38.229333-85.333333 85.333333-85.333333l938.666667 0c47.104 0 85.333333 38.229333 85.333333 85.333333l0 76.8L640 469.333333z" p-id="11114" fill="#666666"></path></svg>