<?xml version="1.0" standalone="no"?><!DOCTYPE svg PUBLIC "-//W3C//DTD SVG 1.1//EN" "http://www.w3.org/Graphics/SVG/1.1/DTD/svg11.dtd"><svg t="1512806805829" class="icon" style="" viewBox="0 0 1024 1024" version="1.1" xmlns="http://www.w3.org/2000/svg" p-id="2096" xmlns:xlink="http://www.w3.org/1999/xlink" width="128" height="128"><defs><style type="text/css"></style></defs><path d="M83.455225 527.539928c-12.69309 0-17.857716-5.252631-17.857716-17.928325 0-247.14482 201.045899-448.208115 448.13853-448.208115 167.289074 0 319.470055 92.128257 397.191184 240.439094 5.880941 11.239995 1.539053 25.14161-9.665127 31.024597-11.275811 5.901407-25.160029 1.541099-31.04097-9.6815-69.75469-133.132136-206.351742-215.805044-356.484064-215.805044-221.75864 0-402.179802 180.438559-402.179802 402.230967C111.556237 522.287297 96.148315 527.539928 83.455225 527.539928L83.455225 527.539928zM83.455225 527.539928" p-id="2097" fill="#666666"></path><path d="M513.735016 957.819718c-149.117203 0-288.026926-73.882708-371.57476-197.614753-7.090489-10.522658-4.341888-24.806989 6.198166-31.899524 10.522658-7.089465 24.826432-4.324492 31.899524 6.180769 74.986855 111.070678 199.663412 177.357384 333.478094 177.357384 218.851427 0 399.273612-178.023556 402.142963-396.821771l0.034792-5.41022c0-12.69309 15.408945-17.928325 28.102035-17.928325 12.675694 0 17.856693 5.234211 17.856693 17.928325l-0.053212 5.989411C958.599989 759.452835 757.606279 957.819718 513.735016 957.819718L513.735016 957.819718zM513.735016 957.819718" p-id="2098" fill="#666666"></path><path d="M592.119247 552.402175c-6.197142 0-12.360516-2.486634-16.877389-7.370875L435.561585 393.813251 302.044686 524.792351c-4.27128 4.183276-15.406898 2.695389-21.37789 2.747577L83.455225 527.539928l0 0c-12.623505 0-17.788132-5.759167-17.857716-18.400069-0.070608-12.69309 5.164626-17.385972 17.857716-17.455557l197.211571 0L420.329672 344.335373c4.411473-4.341888 10.995425-6.617721 16.650215-6.513344 6.215562 0.140193 12.115945 2.819209 16.300244 7.388271l155.734924 168.604022c8.632611 9.331529 8.037047 23.880897-1.278109 32.459273C603.289658 550.370913 597.686033 552.402175 592.119247 552.402175L592.119247 552.402175zM592.119247 552.402175" p-id="2099" fill="#666666"></path><path d="M573.350788 678.005848c-5.952572 0-11.871375-2.311649-16.388249-6.898107L391.581931 503.028675c-8.894577-9.051143-8.771781-23.600511 0.279363-32.494065 9.03477-8.894577 23.600511-8.789177 32.495088 0.279363l149.344377 151.777799 119.318526-112.980167c4.324492-4.219091 30.341029-17.034978 35.856649-17.928325l215.139895 0c12.69309 0.069585 17.928325 4.744048 17.856693 17.438161-0.053212 12.640901-10.345626 22.236444-22.986527 22.236444l5.129834-3.817955-215.139895 0L589.388043 671.177326C584.905962 675.519214 579.128375 678.005848 573.350788 678.005848L573.350788 678.005848zM573.350788 678.005848" p-id="2100" fill="#666666"></path></svg>