<?xml version="1.0" standalone="no"?><!DOCTYPE svg PUBLIC "-//W3C//DTD SVG 1.1//EN" "http://www.w3.org/Graphics/SVG/1.1/DTD/svg11.dtd"><svg t="1509517106883" class="icon" style="" viewBox="0 0 1024 1024" version="1.1" xmlns="http://www.w3.org/2000/svg" p-id="2639" xmlns:xlink="http://www.w3.org/1999/xlink" width="32" height="32"><defs><style type="text/css"></style></defs><path d="M809.45066 254.087351H544.05405c-11.005181 0-19.938985 8.937453-19.938985 19.95723 0 11.020993 8.933804 19.94385 19.938985 19.94385h265.39661c11.034373 0 19.95723-8.922857 19.957229-19.94385-0.00973-11.014912-8.942318-19.95723-19.957229-19.95723zM809.45066 353.303049H544.05405c-11.005181 0-19.938985 8.938669-19.938985 19.963311 0 11.014912 8.933804 19.958446 19.938985 19.958446h265.39661c11.034373 0 19.95723-8.938669 19.957229-19.958446-0.00973-11.025858-8.942318-19.963311-19.957229-19.963311zM635.568067 472.483275c0-11.019777-8.932587-19.947499-19.957229-19.9475h-71.556788c-11.016128 0-19.938985 8.927722-19.938985 19.9475 0 11.024642 8.922857 19.963311 19.938985 19.963311h71.556788c11.034373-0.004865 19.95723-8.943534 19.957229-19.963311z" p-id="2640" fill="#ffffff"></path><path d="M112.412063 725.988013c-25.87215-2.695345-46.218599-24.765307-46.218598-51.379406V175.306893c0-28.417888 23.215727-49.501422 51.588611-49.501422h754.883911c28.357073 0 53.740265 21.078668 53.740266 49.501422v309.82115c12.709233 9.84847 39.213864 20.83419 49.919832 32.785661V142.892207c0-38.102156-48.778933-66.375303-86.826355-66.375303H85.464695c-38.052287 0-69.175251 43.034297-69.175251 81.131587v533.96171c0 35.691428 27.286719 80.041773 61.985637 83.663946h430.06808c-3.065104-11.230199-5.430828-37.490351-6.965812-49.287351H112.412063v0.001217z" p-id="2641" fill="#ffffff"></path><path d="M355.441932 687.455283c-79.259685-0.30651-132.104745-2.275718-166.420525-6.197104-36.387157-4.158567-54.967523-10.752189-64.134859-22.75961-9.730487-12.745722-5.820048-27.279421-2.678317-38.95479 1.161577-4.315471 2.362076-8.7769 3.063888-13.293062 3.152678-20.346449 15.043333-36.61704 36.350668-49.739819 16.782658-10.334994 36.879763-17.231477 56.313979-23.898077 16.558857-5.681388 32.199399-11.047752 43.047676-17.693675 17.17431-10.515008 11.399266-34.976237 8.854744-43.192417-21.269629-18.012348-37.75794-42.080709-48.067392-70.138569-13.370906-7.358681-23.518588-23.800772-26.283262-43.657048-3.009153-21.716015 3.427564-41.181855 16.048006-51.078977 4.152485-39.500913 17.332431-72.863106 38.325957-96.840243 25.155742-28.728048 61.539251-43.913689 105.218193-43.913689l0.319889 0.002432 0.288266-0.002432c43.68259 0 80.068532 15.184426 105.22549 43.911257 20.993526 23.973488 34.175904 57.334464 38.336904 96.83781 12.641119 9.901987 19.06689 29.37999 16.016382 51.099654-2.729402 19.838031-12.875867 36.286204-26.274748 43.646101-10.304586 28.074889-26.789248 52.144465-48.04793 70.127623-2.540874 8.250237-8.268482 32.704168 8.866906 43.194849 10.853142 6.645923 26.492468 12.012287 43.051325 17.694892l1.449843 0.497471 8.196719 2.717238 1.091031 0.47801-0.178798 26.003512h0.177582v120.804l-13.651874 0.884258c-32.466987 2.104218-76.464602 3.235387-134.505743 3.460405z m-0.5145-492.164402c-92.196368 0.083925-111.605041 76.091195-114.966924 121.407291l-0.699379 9.423977-8.882719 3.218359c-3.032263 1.098329-7.887776 10.769217-5.975735 24.574345 1.980154 14.215026 9.164903 21.716015 12.57179 22.571082l7.814797 1.96191 2.504384 7.657893c8.778116 26.8379 24.011194 49.492908 44.051133 65.516588l2.657639 2.124895 1.443761 3.080916c5.478264 11.689964 18.275072 60.033458-19.215279 82.985245-13.58376 8.320783-30.698471 14.193132-48.820288 20.409697-33.992241 11.663205-69.142411 23.722928-73.292464 50.503662-0.94629 6.091285-2.420459 11.568333-3.720695 16.400736-1.241853 4.612251-3.319312 12.332176-2.307341 13.656739 1.258882 1.648101 8.168744 7.347734 44.245742 11.471029 33.225965 3.797323 85.055406 5.705715 163.106078 6.007359 49.53183-0.190961 88.678797-1.047244 118.966155-2.60777v-98.533348c-14.753851-5.146212-28.520058-10.378781-39.837832-17.310537-37.333447-22.855698-24.692328-71.2296-19.262716-82.931727l1.44741-3.118621 2.686831-2.145573c20.028992-15.988407 35.254772-38.639765 44.030455-65.504424l2.504384-7.663976 7.822096-1.960693c3.415401-0.856283 10.605015-8.351191 12.55841-22.555269 1.942449-13.827023-2.909416-23.489396-5.944111-24.588942l-8.880286-3.219575-0.700596-9.420328c-3.370398-45.31488-22.79245-121.317284-114.971789-121.409723-0.156904 0.003649-0.315025 0.006082-0.473145 0.006081l-0.459766-0.007298z" p-id="2642" fill="#ffffff"></path><path d="M649.228455 690.182252c-6.501182 0.104603-12.493946 2.764675-16.873881 7.473014-4.299659 4.623198-6.53159 10.606231-6.287112 16.843474 0.234748 6.26765 2.859547 12.05729 7.463284 16.316811l99.156099 92.266913a23.612244 23.612244 0 0 0 18.165604 6.187374c6.625246-0.692081 12.748155-4.105049 16.708463-9.526147l133.762577-181.952816c7.667624-10.446894 5.39069-25.138714-5.056205-32.761334-10.144033-7.40855-25.389274-5.067151-32.746739 5.056204l-118.139063 160.750084-79.886085-74.340923a23.261946 23.261946 0 0 0-16.266942-6.312654zM772.59279 477.280405c-129.846056 0-235.100738 105.251033-235.100738 235.101954s105.254682 235.100738 235.100738 235.100737c129.861868 0 235.11655-105.254682 235.11655-235.100737S902.454658 477.280405 772.59279 477.280405m0 426.096825c-105.459022 0-190.980275-85.511523-190.980275-190.990006 0-105.469969 85.521253-190.985141 190.980275-190.985141 105.479699 0 190.991222 85.515172 190.991222 190.985141 0 105.478483-85.511523 190.990006-190.991222 190.990006" p-id="2643" fill="#ffffff"></path></svg>