<?xml version="1.0" standalone="no"?><!DOCTYPE svg PUBLIC "-//W3C//DTD SVG 1.1//EN" "http://www.w3.org/Graphics/SVG/1.1/DTD/svg11.dtd"><svg t="1509517194740" class="icon" style="" viewBox="0 0 1024 1024" version="1.1" xmlns="http://www.w3.org/2000/svg" p-id="4734" xmlns:xlink="http://www.w3.org/1999/xlink" width="32" height="32"><defs><style type="text/css"></style></defs><path d="M599.323449 788.083943c-11.894617 7.774099-25.200287 13.412164-39.914961 16.914195-8.714118 2.072547-17.383181 3.332049-26.054291 4.163526v43.992472h-42.71249v-44.547472c-8.841092-1.132528-17.448716-2.818009-25.73276-5.21004-15.910689-4.571072-29.877854-11.489119-41.921973-20.801244-12.02364-9.289598-21.548754-21.163736-28.532336-35.642893-6.983582-14.45663-10.465133-31.585862-10.465134-51.402033h40.105423c0 13.711168 2.60502 25.519771 7.817106 35.429904 5.189559 9.887606 12.02364 18.044675 20.502241 24.43025 8.478601 6.406054 18.345727 11.126628 29.642337 14.159674 11.29661 3.053525 22.894271 4.571072 34.788889 4.571072 9.502587 0 19.091189-0.897011 28.745326-2.734042 9.652089-1.83703 18.343679-4.954043 26.074771-9.375612 7.731092-4.399042 13.967164-10.422126 18.728697-18.044676 4.761533-7.60207 7.133084-17.362701 7.133085-29.236839 0-11.253602-2.883544-20.393698-8.691591-27.420288-5.787567-7.004062-13.518659-12.705614-23.170747-17.127184-9.674617-4.419522-20.586208-7.987088-32.781877-10.741609a6846.169498 6846.169498 0 0 1-37.223927-8.456074 491.414816 491.414816 0 0 1-37.221879-10.037108c-12.193621-3.801035-23.10726-8.841092-32.759349-15.077164-9.674617-6.256552-17.405708-14.329655-23.193276-24.217261-5.787567-9.910133-8.69159-22.316744-8.69159-37.244407 0-16.443162 3.266514-30.68885 9.801591-42.71249 6.535077-12.044119 15.226667-21.931725 26.074771-29.705824 10.848104-7.774099 23.191227-13.561666 37.00889-17.362701 7.858066-2.156514 15.867682-3.545038 23.961264-4.485057v-44.121495h42.71249v44.463506c7.40956 1.003506 14.542644 2.435038 21.376725 4.378563 13.967164 3.950537 26.224273 10.207089 36.775421 18.728697 10.5491 8.521609 18.8782 19.263218 24.96477 32.20435 6.107051 12.963659 9.4391 28.403314 10.037108 46.384502H586.382319c-2.371551-23.449272-10.614635-40.447434-24.729254-50.955574-14.116666-10.506093-32.183869-15.761187-54.179082-15.761188a127.076621 127.076621 0 0 0-26.289808 2.734042c-8.628103 1.83703-16.27318 4.890556-22.978238 9.140096-6.684578 4.27002-12.02364 9.9941-16.037663 17.147664-4.014024 7.153564-6.023084 16.060191-6.023084 26.715786 0 10.057587 2.904023 18.216705 8.69159 24.452778 5.808047 6.236073 13.518659 11.339617 23.191228 15.312681 9.652089 3.950537 20.565728 7.239579 32.759349 9.824119a1416.405642 1416.405642 0 0 1 37.223927 8.435594 440.831972 440.831972 0 0 1 37.223927 10.741609c12.193621 4.122566 23.10726 9.674617 32.781877 16.678679 9.652089 7.004062 17.383181 15.845154 23.170747 26.502797 5.808047 10.678123 8.69159 24.067759 8.691591 40.211917 0 17.362701-3.780555 32.204349-11.362145 44.547472-7.58159 12.343123-17.319694 22.380231-29.193832 30.15433z m13.475652-490.177842h-201.598202c-117.584274 78.119866-229.809007 239.995616-291.782667 388.418242-62.14569 148.785117 12.408658 294.965214 154.443662 294.965215h476.276212c142.057531 0 216.589352-146.180097 154.443662-294.965215-61.97366-148.422626-174.198393-310.300424-291.782667-388.418242z m70.366247-247.321209c-8.970114-1.708008-48.520537-7.858066-68.615232-7.858066-3.352529 0-6.150058 0.169982-8.200077 0.555-16.549656 3.16002-31.649349 12.449618-47.301994 18.751226-14.458678 5.830574-31.008334 8.413066-47.045997 10.057587-16.037663-1.644521-32.589368-4.229061-47.045997-10.057587-15.652645-6.29956-30.752337-15.589158-47.301994-18.751226-2.050019-0.385019-4.847548-0.555-8.200077-0.555-20.094695 0-59.647165 6.150058-68.615232 7.858066-73.720824 14.137146-20.117222 76.60232 36.773373 169.500347l22.103755 35.108372h224.57644l22.103754-35.108372c56.909027-92.898027 110.490101-155.363201 36.769278-169.500347z m260.626879 619.208227c38.27044 91.595518 32.972338 188.784045-14.159674 259.983816C889.996116 989.659617 824.561384 1024 750.138106 1024H273.861894c-74.425326 0-139.83753-34.340383-179.494447-94.221017-47.132012-71.199771-52.428066-168.390347-14.159674-259.983816 66.522205-159.313738 175.992416-309.167896 284.11711-390.87376l-0.555-0.897011-22.402758-35.579406c-7.987088-13.047625-15.910689-25.499291-23.426744-37.264887-39.828946-62.508181-68.594752-107.653661-49.952069-151.177147 10.209137-23.811763 32.034368-39.081437 64.879732-45.358469C338.784633 7.509911 383.823618 0.014336 409.449884 0.014336c6.322087 0 11.446112 0.405498 16.144158 1.30251 16.465689 3.13954 30.217817 9.611129 42.370478 15.312681 4.272068 2.007012 8.521609 4.036551 12.791629 5.74456 7.858066 3.182547 18.429694 5.509043 31.243851 7.090077 12.814157-1.581034 23.383737-3.907529 31.243851-7.090077 4.272068-1.708008 8.521609-3.737548 12.791629-5.74456 12.150614-5.701552 25.904789-12.173142 42.370478-15.312681C603.104005 0.419834 608.228029 0.014336 614.550116 0.014336c25.626265 0 70.665251 7.495575 76.58184 8.628103 32.845364 6.27908 54.670595 21.548754 64.879732 45.358469 18.642683 43.523487-10.123122 88.668967-49.952069 151.177148-7.518103 11.767643-15.439656 24.217261-23.426744 37.264886l-22.380231 35.579406-0.577527 0.897011c108.124694 81.707912 217.592858 231.560022 284.11711 390.87376z" fill="#ffffff" p-id="4735"></path></svg>