<?xml version="1.0" standalone="no"?><!DOCTYPE svg PUBLIC "-//W3C//DTD SVG 1.1//EN" "http://www.w3.org/Graphics/SVG/1.1/DTD/svg11.dtd"><svg t="1512381866131" class="icon" style="" viewBox="0 0 1024 1024" version="1.1" xmlns="http://www.w3.org/2000/svg" p-id="15974" xmlns:xlink="http://www.w3.org/1999/xlink" width="32" height="32"><defs><style type="text/css"></style></defs><path d="M512.9 64.2C265.6 64.2 65 264.8 65 512.1S265.6 960 512.9 960s447.9-200.5 447.9-447.9S760.3 64.2 512.9 64.2z m0 843.6c-218.5 0-395.7-177.1-395.7-395.7 0-218.5 177.2-395.7 395.7-395.7s395.7 177.2 395.7 395.7c0 218.6-177.2 395.7-395.7 395.7z m0 0" p-id="15975" fill="#999999"></path><path d="M512.9 678.6c-22.4 0-37.3 14.5-37.3 36.2 0 21.7 14.9 36.2 37.3 36.2s37.3-14.5 37.3-36.2c0-21.7-14.9-36.2-37.3-36.2z m7.5-405.4c-67.2 0-119.4 29-156.8 72.4l37.3 29c29.9-36.2 59.7-57.9 119.4-57.9s82.1 29 82.1 65.1c0 72.4-134.4 79.6-134.4 173.7 0 21.7 7.5 43.4 29.9 57.9l44.8-21.7c-14.9-7.2-22.4-21.7-22.4-29 0-72.4 141.8-79.6 141.8-181 0.1-57.8-52.1-108.5-141.7-108.5z m0 0" p-id="15976" fill="#999999"></path></svg>