<?xml version="1.0" standalone="no"?><!DOCTYPE svg PUBLIC "-//W3C//DTD SVG 1.1//EN" "http://www.w3.org/Graphics/SVG/1.1/DTD/svg11.dtd"><svg t="1512456425120" class="icon" style="" viewBox="0 0 1024 1024" version="1.1" xmlns="http://www.w3.org/2000/svg" p-id="1869" xmlns:xlink="http://www.w3.org/1999/xlink" width="32" height="32"><defs><style type="text/css"></style></defs><path d="M176 721.28l68.8-68.8c-53.76-37.12-99.52-85.12-134.72-140.48 38.4-60.48 89.28-112 149.44-150.4 3.84-2.56 8-4.8 11.84-7.36-9.92 27.2-15.36 56.96-15.36 87.68 0 56.32 18.24 108.16 48.96 150.4l88.96-88.96c-42.56-9.92-73.92-48-73.92-93.44 0-53.12 42.88-96 96-96 45.44 0 83.52 31.68 93.44 73.92l170.56-170.56c-53.12-16.64-109.44-25.6-168-25.6-223.36 0-416.96 129.92-512 320 41.6 83.52 102.08 155.2 176 209.6zM848 302.72L779.2 371.52c53.76 37.12 99.52 84.8 134.72 140.48-38.4 60.48-89.28 112-149.44 150.4-75.52 48.32-162.88 73.6-252.48 73.6-29.76 0-59.52-2.88-88.64-8.64L344.32 806.72c53.12 16.64 109.44 25.28 167.68 25.28 223.36 0 416.96-129.92 512-320-41.92-83.2-102.4-154.88-176-209.28z" p-id="1870" fill="#666666"></path><path d="M512 697.92c141.44 0 256-114.56 256-256 0-18.24-1.92-36.16-5.76-53.44l-303.68 304c16.96 3.52 34.88 5.44 53.44 5.44zM111.36 912.32c-11.2-11.2-11.2-29.44 0-40.64l760.32-760.32c11.2-11.2 29.44-11.2 40.64 0s11.2 29.44 0 40.64L152 912.32c-11.2 11.2-29.44 11.2-40.64 0z" p-id="1871" fill="#666666"></path></svg>