<?xml version="1.0" standalone="no"?><!DOCTYPE svg PUBLIC "-//W3C//DTD SVG 1.1//EN" "http://www.w3.org/Graphics/SVG/1.1/DTD/svg11.dtd"><svg t="1512379728525" class="icon" style="" viewBox="0 0 1025 1024" version="1.1" xmlns="http://www.w3.org/2000/svg" p-id="10935" xmlns:xlink="http://www.w3.org/1999/xlink" width="32.03125" height="32"><defs><style type="text/css"></style></defs><path d="M983.742564 312.692262c-25.788515-60.972885-62.701387-115.722754-109.70724-162.731674-47.006875-47.006875-101.756744-83.916681-162.729629-109.70724-63.152168-26.710519-130.208031-40.253348-199.307227-40.253348-69.099196 0-136.15506 13.542829-199.305183 40.252326-60.972885 25.790559-115.724799 62.700365-162.729629 109.70724-47.008919 47.008919-83.917703 101.758788-109.709284 162.731674-26.709497 63.149101-40.25437 130.205987-40.254371 199.306205S13.54283 648.155571 40.254372 711.30365c25.789537 60.975952 62.700365 115.725821 109.70724 162.732695 47.006875 47.008919 101.756744 83.919747 162.729629 109.710307 63.150123 26.710519 130.205987 40.25437 199.305183 40.25437 69.100218 0 136.15506-13.541807 199.306205-40.25437 60.973908-25.789537 115.724799-62.701387 162.729629-109.710307 47.006875-47.006875 83.919747-101.756744 109.70724-162.732695 26.709497-63.149101 40.255393-130.205987 40.255392-199.306205 0.003067-69.100218-13.542829-136.158126-40.252326-199.305183zM511.998468 980.425597a473.346871 473.346871 0 0 1-57.074301-3.466204V870.29722c-31.744743 0-59.702319-12.105648-83.956545-36.340453-24.255249-24.253205-36.360897-52.233268-36.360897-83.955523v-58.742494l-280.107288-280.127733C100.637461 200.918179 287.930014 43.573381 511.998468 43.573381c64.072127 0 125.13292 12.880458 180.753684 36.166682v15.281553c0 31.722255-12.125069 59.254605-36.359874 82.574562-24.234805 23.341422-52.236335 34.999356-83.95859 34.999356H454.862837v120.383884c0 16.785176-6.064579 30.784918-18.216225 41.966517-12.136313 11.180577-26.602168 16.776999-43.424143 16.776999h-117.550407v120.383884h358.272177c16.788243 0 30.787985 5.595399 41.966517 16.774954 11.202043 11.192843 16.790287 25.170098 16.790287 41.995138v179.1274h58.741472c52.306865 0 89.129786 24.446396 110.502494 73.338166-85.795443 96.364758-210.77197 157.083121-349.946541 157.083121z" p-id="10936" fill="#ff9900"></path></svg>