<?xml version="1.0" standalone="no"?><!DOCTYPE svg PUBLIC "-//W3C//DTD SVG 1.1//EN" "http://www.w3.org/Graphics/SVG/1.1/DTD/svg11.dtd"><svg t="1512219619167" class="icon" style="" viewBox="0 0 1024 1024" version="1.1" xmlns="http://www.w3.org/2000/svg" p-id="2279" xmlns:xlink="http://www.w3.org/1999/xlink" width="200" height="200"><defs><style type="text/css"></style></defs><path d="M974.48 0H49.521C22.171 0 0 27.756 0 61.996v900.01C0 996.244 22.171 1024 49.521 1024H974.48c27.35 0 49.52-27.756 49.52-61.994V61.996C1024 27.756 1001.83 0 974.48 0zM637.305 312.61h-68.456s-54.471 99.03-57.271 108.836c-2.392-9.055-56.436-108.836-56.436-108.836h-68.396l69.081 123.044H349.743v51.569h130.482v61.58H349.743v51.065h130.482v117.38h62.449v-117.38H674.25v-51.065H542.675v-61.58H674.25v-51.569H567.317l69.988-123.044m183.231 444.985c-72.767 101.883-233.222 165.843-304.972 192.8-7.393 2.776-10.838-0.396-10.838-0.396-55.565-20.563-241.487-101.496-301.961-192.404-91.349-134.811-109.195-473.391-98.357-528.257 130.051-4.702 401.093-150.48 401.093-150.48h4.648s278.691 145.778 408.745 150.48c10.637 56.183 2.286 374.634-98.358 528.257" fill="#F4AC39" p-id="2280"></path></svg>