<?xml version="1.0" standalone="no"?><!DOCTYPE svg PUBLIC "-//W3C//DTD SVG 1.1//EN" "http://www.w3.org/Graphics/SVG/1.1/DTD/svg11.dtd"><svg t="1509519100838" class="icon" style="" viewBox="0 0 1024 1024" version="1.1" xmlns="http://www.w3.org/2000/svg" p-id="1843" xmlns:xlink="http://www.w3.org/1999/xlink" width="32" height="32"><defs><style type="text/css"></style></defs><path d="M111.332 360.996c0.856-2.452 1.736-4.896 2.562-7.358 6.672-19.874 24.038-33.182 45.198-34.626 19.21-1.312 38.572 9.972 47.528 27.7 9.134 18.08 6.53 39.486-6.722 55.158-1.506 1.78-3.058 3.52-4.864 5.596 37.39 22.886 74.444 45.572 111.502 68.248 14.072 8.61 28.094 17.3 42.26 25.752 7.956 4.748 14.176 3.34 18.542-4.6 42.624-77.518 85.116-155.108 128.024-233.364-18.638-9.428-30.496-23.754-31.582-45.1-0.758-14.91 4.478-27.81 15.174-38.238 21.07-20.542 55.532-18.512 73.964 4.2 21.122 26.03 13.57 56.476-20.132 79.45 11.012 20.092 22.048 40.244 33.098 60.388 30.844 56.228 61.69 112.454 92.544 168.676 7.132 12.994 11.72 14.238 24.272 6.556 47.796-29.248 95.584-58.508 143.37-87.774 2.188-1.34 4.322-2.766 6.866-4.398-9.828-9.826-16.1-21.08-16.852-34.81-1.414-25.784 16.244-48.242 41.138-52.538 25.798-4.452 49.798 10.266 57.442 35.206 0.606 1.976 1.332 3.918 2.002 5.874 0 5.768 0 11.534 0 17.302-8.162 25.996-24.816 41.144-53.422 41.38-0.98 2.962-2.052 5.888-2.922 8.872-27.97 95.954-55.922 191.914-83.878 287.872-3.636 12.476-8.004 15.856-20.658 15.858-160.936 0.018-321.872 0.03-482.81 0.032-13.506 0-17.762-3.202-21.446-15.86-22.67-77.876-45.338-155.752-68.03-233.62-6.14-21.072-12.362-42.12-18.558-63.22-21.372-0.016-37.538-8.434-47.674-26.986-2.464-4.51-3.984-9.538-5.938-14.328C111.332 372.53 111.332 366.764 111.332 360.996z" p-id="1844" fill="#ffffff"></path><path d="M513.99 782.578c75.222 0 150.444-0.054 225.666 0.036 20.12 0.024 36.188 14.206 38.414 33.378 2.228 19.198-10.502 36.862-29.84 41.202-2.78 0.624-5.708 0.812-8.568 0.812-150.444 0.036-300.888 0.052-451.332 0.002-17.198-0.006-31.546-10.256-36.674-25.716-5.136-15.486-0.428-33.012 13.412-41.77 7.11-4.5 16.462-7.574 24.83-7.638 74.694-0.576 149.394-0.336 224.092-0.336C513.99 782.56 513.99 782.568 513.99 782.578z" p-id="1845" fill="#ffffff"></path></svg>