<?xml version="1.0" standalone="no"?><!DOCTYPE svg PUBLIC "-//W3C//DTD SVG 1.1//EN" "http://www.w3.org/Graphics/SVG/1.1/DTD/svg11.dtd"><svg t="1511918931216" class="icon" style="" viewBox="0 0 1024 1024" version="1.1" xmlns="http://www.w3.org/2000/svg" p-id="1870" xmlns:xlink="http://www.w3.org/1999/xlink" width="32" height="32"><defs><style type="text/css"></style></defs><path d="M512 0C229.668737 0 0 229.668737 0 512S229.668737 1024 512 1024 1024 794.331263 1024 512 794.331263 0 512 0z m0 950.857473c-241.992606 0-438.857473-196.864868-438.857473-438.857473S270.007394 73.142527 512 73.142527 950.857473 270.007394 950.857473 512 753.992606 950.857473 512 950.857473zM659.528895 512c20.224289 0 36.571263-16.384 36.571263-36.571263s-16.346974-36.571263-36.571263-36.571264h-110.957632v-17.298079l135.533632-141.568867c13.934499-14.628737 13.714658-37.778079-0.914079-51.711422-14.555842-13.896316-37.522368-13.384895-51.528606 1.279711L515.547553 351.597632 392.594658 228.901605c-14.336-14.298974-37.449473-14.226079-51.712579 0.072894-14.263105 14.300131-14.957342 37.449473-0.658368 51.712579l135.205026 135.569501v22.602052h-108.324158c-20.18842 0-36.57242 16.384-36.572421 36.571263s16.384 36.571263 36.571263 36.571263h108.324159v73.142527h-108.324159c-20.187263 0-36.571263 16.348131-36.571263 36.571263 0 20.225446 16.384 36.57242 36.571263 36.57242h108.324159v108.726816c0 20.223132 16.384 36.571263 36.57242 36.571263 20.187263 0 36.571263-16.348131 36.571263-36.571263v-108.726816h110.957632c20.224289 0 36.571263-16.348131 36.571263-36.57242 0-20.223132-16.346974-36.571263-36.571263-36.571263h-110.957632V512h110.957632z" fill="#444444" p-id="1871"></path></svg>