<?xml version="1.0" standalone="no"?><!DOCTYPE svg PUBLIC "-//W3C//DTD SVG 1.1//EN" "http://www.w3.org/Graphics/SVG/1.1/DTD/svg11.dtd"><svg t="1509609741129" class="icon" style="" viewBox="0 0 1024 1024" version="1.1" xmlns="http://www.w3.org/2000/svg" p-id="2305" xmlns:xlink="http://www.w3.org/1999/xlink" width="32" height="32"><defs><style type="text/css"></style></defs><path d="M512 1024C246.912 1024 32 809.088 32 544 32 335.104 165.696 157.888 352 91.904 352 91.904 352 160.064 352 160.064 201.728 222.784 96 371.008 96 544 96 773.76 282.24 960 512 960 741.76 960 928 773.76 928 544 928 371.008 822.272 222.784 672 160.064 672 160.064 672 91.904 672 91.904 858.304 157.888 992 335.104 992 544 992 809.088 777.088 1024 512 1024ZM480 0C480 0 544 0 544 0 544 0 544 512 544 512 544 512 480 512 480 512 480 512 480 0 480 0Z" p-id="2306" fill="#444444"></path></svg>