<?xml version="1.0" standalone="no"?><!DOCTYPE svg PUBLIC "-//W3C//DTD SVG 1.1//EN" "http://www.w3.org/Graphics/SVG/1.1/DTD/svg11.dtd"><svg t="1510906774605" class="icon" style="" viewBox="0 0 1024 1024" version="1.1" xmlns="http://www.w3.org/2000/svg" p-id="6021" xmlns:xlink="http://www.w3.org/1999/xlink" width="64" height="64"><defs><style type="text/css"></style></defs><path d="M942.926769 0 3.938462 0l1020.061538 1020.061538L1024 105.649231C1024 47.277292 987.730708 0 942.926769 0zM677.793477 407.831631c0 11.346708-2.4064 20.314585-7.227077 26.903631-4.824615 6.589046-11.527877 10.771692-20.129477 12.536123-8.6016 1.764431-24.497231 2.654523-47.675077 2.654523-1.098831-14.521108-3.540677-28.246646-7.3216-41.176615l-7.687877 16.289477c-9.515323-5.856492-22.575262-11.961108-39.164062-18.302031 12.197415-22.941538 22.811569-49.778215 31.842462-80.521846l40.991508 12.445538c-6.589046 22.079015-14.391138 43.437292-23.425969 64.0512 5.974646 0.484431 11.961108 0.732554 17.935754 0.732554 9.2672 0 14.024862-5.490215 14.272985-16.470646l0-67.347692-68.808862 0L561.396185 278.6304l68.808862 0 0-23.792246-74.665354 0L555.539692 213.846646l39.345231 0c-5.123938-9.999754-10.432985-19.515077-15.9232-28.549908l39.896615-16.104369c9.763446 16.222523 17.935754 31.109908 24.5248 44.654277l16.104369 0c12.079262-20.3776 20.3776-35.505231 24.887138-45.386831l-122.249846 0L562.1248 127.468308l65.150031 0c-3.292554-8.900923-6.470892-16.955077-9.515323-24.158523l50.510769-9.149046c3.540677 9.515323 7.203446 20.613908 10.980431 33.307569l61.4912 0 0 40.991508-50.136615 0c6.7072 3.044431 19.7632 8.782769 39.164062 17.2032-4.025108 6.222769-10.247877 15.619938-18.668308 28.183631l37.698954 0 0 40.991508-71.006523 0 0 23.792246 64.417477 0 0 40.991508-64.417477 0L677.793477 407.831631zM888.619323 261.793477l0 190.326154-48.313108 0L840.306215 261.793477l-32.208738 0 0 20.862031c0 77.229292-16.718769 136.156554-50.144492 176.785723-16.5888-14.391138-31.960615-26.600369-46.119385-36.600123 13.906708-12.327385 24.772923-27.632246 32.575015-45.934277l-37.332677 21.047138c-8.534646-19.282708-17.8176-37.332677-27.817354-54.1696l35.138954-17.569477c8.668554 11.712985 18.731323 28.482954 30.196185 50.325662 10.129723-23.792246 15.190646-52.641477 15.190646-86.563446l0-164.706462c55.634708-5.608369 100.903385-14.521108 135.790277-26.718523l20.862031 47.946831c-32.941292 8.782769-69.056985 15.005538-108.3392 18.668308l0 48.679385 108.3392 0 0 47.946831L888.619323 261.793477z" fill="#ff6600" p-id="6022"></path></svg>